<svg width="74" height="109" viewBox="0 0 74 109" fill="none" xmlns="http://www.w3.org/2000/svg">
<path d="M29.2526 1.75533C46.4177 9.22874 57.33 24.1392 58.7518 37.787C60.5231 54.7701 49.5504 68.8779 35.2748 79.1715C27.143 85.035 17.8279 89.9057 8.27655 94.4626C5.82174 95.6354 8.49507 99.1791 10.9885 98.0005C29.1234 89.4067 46.9878 79.5604 56.6397 64.5677C65.3756 50.995 66.8706 33.7234 54.7163 18.0134C48.9085 10.5042 40.1888 4.1566 30.0001 0.323741C28.8278 -0.120199 28.093 1.24925 29.2526 1.75533Z" fill="#525CCB"/>
<path d="M12.0088 98.825C17.267 99.1106 22.5894 99.5476 27.8817 100.226C33.1908 100.91 38.5101 101.984 43.8073 102.545C45.8469 102.76 46.0889 100.528 44.0955 99.9185C33.6275 96.7223 21.8059 96.3884 11.5405 96.8702C10.1257 96.9421 10.5476 98.7465 12.0088 98.825Z" fill="#525CCB"/>
<path d="M11.9712 95.2897C13.8837 88.9104 14.3717 81.7247 11.7622 74.7774C11.2148 73.3265 8.63049 73.6725 8.99374 75.0631C10.7787 81.8963 11.9664 88.3942 10.8633 94.9577C10.7746 95.4719 11.8134 95.8093 11.9712 95.2897Z" fill="#525CCB"/>
</svg>
