<svg width="500" height="29" viewBox="0 0 500 29" fill="none" xmlns="http://www.w3.org/2000/svg">
<path fill-rule="evenodd" clip-rule="evenodd" d="M212.355 2.74367C188.865 3.68391 165.651 4.84001 143.013 6.10393C110.967 7.89191 78.9329 9.74157 47.092 12.6702C37.0692 13.595 26.891 14.1807 16.9309 15.3367C10.6785 16.0611 2.38806 17.0937 1.30004 17.3095C0.730959 17.4328 0.48269 17.6179 0.402468 17.6796C-0.161597 18.1112 -0.0586762 18.5272 0.259707 18.8509C0.387562 18.9896 0.710868 19.3288 1.60836 19.3751C61.6299 22.5349 123.005 16.3694 183.099 15.722C287.313 14.6123 394.686 19.0206 498.073 28.6387C498.976 28.7157 499.853 28.3303 499.978 27.76C500.129 27.2051 499.477 26.6656 498.575 26.5885C395.012 16.955 287.464 12.5313 183.049 13.6565C127.044 14.2576 69.9329 19.6679 13.8498 17.8183C15.1384 17.6641 16.402 17.5099 17.5552 17.3712C27.4752 16.2152 37.6108 15.6449 47.5935 14.7201C79.3666 11.7915 111.335 9.94188 143.339 8.16931C183.049 5.94974 224.489 4.03844 266.255 3.14444C281.196 3.28317 296.088 3.42195 310.979 3.5915C343.193 3.96143 375.558 5.04039 407.698 6.48927C417.374 6.93627 427.051 7.39864 436.728 7.7994C439.937 7.93812 448.21 8.33881 449.363 8.30798C450.792 8.27715 451.068 7.53736 451.093 7.41405C451.168 7.13661 451.118 6.75125 450.416 6.42756C450.341 6.38132 449.889 6.22708 448.887 6.1346C390.449 0.67817 328.052 -0.231092 266.305 1.07907C201.175 0.508763 135.793 0.262032 70.8279 0C69.8979 0 69.1382 0.462477 69.1307 1.03278C69.1257 1.60309 69.8752 2.06558 70.8053 2.08099C117.846 2.26596 165.124 2.45081 212.355 2.74367Z" fill="#525CCB"/>
</svg>
