<svg width="123" height="116" fill="none" xmlns="http://www.w3.org/2000/svg"><path d="M90.317 8.296c6.606-.347 13.715 5.22 16.814 11.878 3.498 7.52 2.242 15.568-1.315 21.205-2.281 3.607-5.431 6.454-8.891 8.82-3.508 2.398-7.299 4.44-11.196 6.243-3.736 1.73-7.614 3.338-11.676 4.44-3.099.843-6.563 1.332-10.072.035-3.493-1.286-6.208-4.386-7.259-8.001-1.027-3.548-.5-7.24 1.564-9.576 4.427-5.002 13.918-2.047 18.815 3.897 5.802 7.033 6.129 16.193 3.157 22.737-3.22 7.092-9.726 12.088-16.7 15.005-6.991 2.922-15.084 3.82-23.353 2.483-7.853-1.276-15.804-4.503-23.015-9.308a64.306 64.306 0 01-5.173-3.836c-.969-.794-.184-2.21.789-1.41 12.98 10.633 29.089 15.357 42.94 12.488 7.105-1.472 13.532-4.87 18.355-9.908 4.679-4.883 7.814-11.953 5.51-20.053-1.001-3.51-3.025-7.068-6.018-9.47-2.767-2.224-6.202-3.5-9.277-3.278-3.08.225-5.444 2.018-6.129 5.074-.634 2.833.094 6.463 2.431 9.036 2.459 2.712 5.962 3.29 8.876 3.037 3.555-.315 6.828-1.622 9.99-2.848a90.347 90.347 0 0011.087-5.193c3.433-1.908 6.758-4.02 9.608-6.706 4.807-4.52 8.162-11.036 7.064-18.853-.912-6.51-5.689-13.109-12.072-15.44-1.444-.53-2.918-.758-4.324-.685-1.088.053-1.622-1.756-.53-1.813z" fill="#525CCB"/><path d="M12.16 71.644c5.932-.31 11.334-2.344 15.573-5.907.78-.652 2.08.834 1.3 1.486-4.443 3.737-10.117 5.908-16.344 6.234-1.087.061-1.625-1.753-.53-1.813z" fill="#525CCB"/><path d="M12.283 72.373c1.985 7.002 2.378 14.065 1.152 20.527-.206 1.084-1.924.322-1.717-.754 1.17-6.181.788-12.928-1.113-19.617-.327-1.165 1.346-1.326 1.678-.156z" fill="#525CCB"/></svg>