<svg width="172" height="19" viewBox="0 0 172 19" fill="none" xmlns="http://www.w3.org/2000/svg">
<path fill-rule="evenodd" clip-rule="evenodd" d="M45.8439 11.189C38.4543 12.906 29.9227 14.6148 21.7152 15.0414C14.7002 15.4056 7.92427 14.84 2.37809 12.4334C1.59628 12.0945 0.61724 12.3275 0.194429 12.9546C-0.229027 13.5812 0.0622971 14.3658 0.844111 14.7052C6.89431 17.3298 14.2716 18.0162 21.9234 17.6185C30.2784 17.1846 38.9641 15.4645 46.5019 13.7227C47.3765 15.1427 49.1877 16.4666 52.3781 17.4434C57.2785 18.9439 63.9693 18.9253 71.0179 18.0798C81.2408 16.854 92.2377 13.9309 99.3082 11.8538C99.5982 11.7691 100.03 11.6343 100.559 11.4566C100.72 11.7417 100.9 12.0227 101.1 12.2986C102.834 14.7026 105.902 16.6464 109.028 17.3406C128.853 21.7426 151.992 16.4681 170.832 12.1756C171.682 11.9809 172.179 11.266 171.94 10.5806C171.695 9.8951 170.806 9.49684 169.949 9.69158C151.638 13.8642 129.156 19.1289 109.885 14.8513C107.513 14.3245 105.206 12.8306 103.891 11.0062C103.743 10.8027 103.614 10.5945 103.491 10.3832C106.089 9.35168 109.144 7.91362 110.787 6.37431C112.476 4.79626 112.895 3.11181 111.425 1.52084C110.162 0.160774 108.248 0.0450656 106.256 0.750152C104.11 1.50534 101.899 3.27087 101.184 4.09941C99.8431 5.64699 99.4178 7.32579 99.6627 8.96272C99.0311 9.17657 98.518 9.33566 98.2016 9.42864C91.2858 11.4597 80.5369 14.3266 70.5409 15.5255C64.1092 16.2972 57.9997 16.4 53.5279 15.0311C51.6208 14.4469 50.3607 13.7651 49.6768 12.9737C51.0265 12.6504 52.3278 12.3322 53.5711 12.0284C56.03 11.4277 61.1495 10.4333 64.8072 8.66107C67.716 7.25193 69.6882 5.33502 69.5735 2.93204C69.5149 1.6975 68.6234 0.873591 67.2048 0.411799C65.085 -0.277791 61.4189 0.0558908 60.0538 0.288337C55.9133 0.991874 50.3871 3.90418 47.6531 7.1858C46.5619 8.49525 45.9128 9.86513 45.8439 11.189ZM49.245 10.3822C50.4148 10.1002 51.5454 9.82328 52.6314 9.55777C54.9266 8.9968 59.7244 8.10575 63.1398 6.45074C64.9483 5.57467 66.425 4.52506 66.3534 3.03069C66.3476 2.91447 66.2039 2.88142 66.0769 2.8339C65.8803 2.76107 65.6554 2.71095 65.4156 2.67169C63.7933 2.40619 61.6142 2.6629 60.7222 2.81476C57.2481 3.40518 52.6269 5.86653 50.333 8.62024C49.8483 9.20187 49.4622 9.79436 49.245 10.3822ZM102.847 7.77363C104.361 7.14913 105.947 6.39392 107.197 5.5721C107.861 5.13561 108.422 4.68675 108.776 4.22083C109.073 3.83548 109.189 3.44082 108.834 3.05961C108.693 2.90516 108.48 2.90208 108.261 2.931C108.029 2.962 107.79 3.0281 107.552 3.11333C105.979 3.6681 104.355 4.96412 103.833 5.5721C103.221 6.27718 102.918 7.02309 102.847 7.77363Z" fill="#525CCB"/>
</svg>
