<svg width="74" height="109" fill="none" xmlns="http://www.w3.org/2000/svg"><path d="M29.253 1.755C46.418 9.23 57.33 24.14 58.752 37.787c1.771 16.983-9.202 31.09-23.477 41.384-8.132 5.864-17.447 10.735-26.998 15.292-2.455 1.172.218 4.716 2.712 3.538 18.134-8.594 35.999-18.44 45.65-33.433 8.737-13.573 10.232-30.845-1.923-46.555C48.908 10.504 40.19 4.157 30 .323c-1.172-.443-1.907.926-.747 1.432z" fill="#525CCB"/><path d="M12.009 98.825c5.258.286 10.58.723 15.873 1.401 5.309.684 10.628 1.758 15.925 2.319 2.04.215 2.282-2.017.288-2.627-10.468-3.196-22.29-3.53-32.554-3.048-1.415.072-.993 1.876.468 1.955zm-.038-3.535c1.913-6.38 2.4-13.565-.209-20.513-.547-1.45-3.132-1.105-2.768.286 1.785 6.833 2.972 13.331 1.87 19.895-.09.514.95.851 1.107.332z" fill="#525CCB"/></svg>