<svg width="500" height="29" fill="none" xmlns="http://www.w3.org/2000/svg"><path fill-rule="evenodd" clip-rule="evenodd" d="M212.355 2.744c-23.49.94-46.704 2.096-69.342 3.36-32.046 1.788-64.08 3.638-95.921 6.566-10.023.925-20.201 1.51-30.161 2.667-6.253.724-14.543 1.757-15.631 1.973-.569.123-.817.308-.898.37-.564.431-.46.847-.142 1.17.128.14.45.479 1.348.525 60.022 3.16 121.397-3.006 181.491-3.653 104.214-1.11 211.587 3.299 314.974 12.917.903.077 1.78-.309 1.905-.879.151-.555-.501-1.094-1.403-1.172-103.563-9.633-211.111-14.057-315.526-12.932-56.005.602-113.116 6.012-169.2 4.162 1.29-.154 2.553-.308 3.706-.447 9.92-1.156 20.056-1.726 30.038-2.65 31.774-2.93 63.742-4.78 95.746-6.552 39.71-2.22 81.15-4.13 122.916-5.025 14.941.14 29.833.278 44.724.447 32.214.37 64.579 1.45 96.719 2.898 9.676.447 19.353.91 29.03 1.31 3.209.14 11.482.54 12.635.509 1.429-.03 1.705-.77 1.73-.894.075-.277.025-.663-.677-.986-.075-.047-.527-.2-1.529-.293C390.449.678 328.052-.231 266.305 1.079 201.175.51 135.793.262 70.828 0c-.93 0-1.69.462-1.697 1.033-.005.57.744 1.033 1.674 1.048 47.041.185 94.319.37 141.55.663z" fill="#E2D3AC"/></svg>