<svg width="172" height="19" fill="none" xmlns="http://www.w3.org/2000/svg"><path fill-rule="evenodd" clip-rule="evenodd" d="M45.844 11.189c-7.39 1.717-15.921 3.426-24.129 3.852-7.015.365-13.79-.201-19.337-2.608-.782-.338-1.76-.105-2.184.522-.423.626-.132 1.41.65 1.75 6.05 2.625 13.428 3.311 21.08 2.914 8.354-.434 17.04-2.155 24.578-3.896.874 1.42 2.686 2.744 5.876 3.72 4.9 1.5 11.591 1.482 18.64.637 10.223-1.226 21.22-4.15 28.29-6.226a36.5 36.5 0 001.251-.397c.161.285.341.566.541.842 1.734 2.404 4.802 4.347 7.928 5.042 19.825 4.402 42.964-.873 61.804-5.165.85-.195 1.347-.91 1.108-1.595-.245-.686-1.134-1.084-1.991-.89-18.311 4.173-40.793 9.438-60.064 5.16-2.372-.527-4.679-2.02-5.994-3.845a7.24 7.24 0 01-.4-.623c2.598-1.031 5.653-2.47 7.296-4.009 1.689-1.578 2.108-3.262.638-4.853-1.263-1.36-3.177-1.476-5.169-.77-2.146.754-4.357 2.52-5.072 3.348-1.34 1.548-1.766 3.227-1.521 4.864-.632.214-1.145.373-1.461.466-6.916 2.03-17.665 4.898-27.661 6.096-6.432.772-12.541.875-17.013-.494-1.907-.584-3.167-1.266-3.851-2.057 1.35-.324 2.65-.642 3.894-.946 2.459-.6 7.579-1.595 11.236-3.367 2.909-1.41 4.881-3.326 4.766-5.729-.058-1.234-.95-2.058-2.368-2.52-2.12-.69-5.786-.356-7.151-.124-4.14.704-9.667 3.616-12.4 6.898-1.092 1.31-1.741 2.68-1.81 4.003zm3.401-.807c1.17-.282 2.3-.559 3.386-.824 2.296-.561 7.093-1.452 10.509-3.107 1.808-.876 3.285-1.926 3.213-3.42-.005-.117-.15-.15-.276-.197a3.606 3.606 0 00-.661-.162c-1.623-.266-3.802-.01-4.694.143-3.474.59-8.095 3.052-10.389 5.805-.485.582-.87 1.174-1.088 1.762zm53.602-2.608c1.514-.625 3.1-1.38 4.35-2.202.664-.436 1.225-.885 1.579-1.351.297-.386.413-.78.058-1.161-.141-.155-.354-.158-.573-.129a3.51 3.51 0 00-.709.182c-1.573.555-3.197 1.851-3.719 2.46-.612.704-.915 1.45-.986 2.2z" fill="#525CCB"/></svg>