<svg width="123" height="116" viewBox="0 0 123 116" fill="none" xmlns="http://www.w3.org/2000/svg">
<path d="M90.3167 8.29624C96.9233 7.94923 104.032 13.5163 107.131 20.1738C110.629 27.6937 109.373 35.742 105.816 41.3788C103.535 44.986 100.385 47.8331 96.925 50.1982C93.4174 52.5969 89.6264 54.6398 85.7294 56.4419C81.9928 58.1714 78.1152 59.7798 74.0533 60.8819C70.9544 61.7245 67.4899 62.2139 63.9806 60.9168C60.4882 59.631 57.7733 56.5307 56.7221 52.9157C55.6946 49.3678 56.2218 45.6764 58.2856 43.34C62.7129 38.3377 72.204 41.2927 77.1012 47.2367C82.9033 54.2701 83.2295 63.4296 80.2576 69.9739C77.0376 77.0664 70.5321 82.0618 63.5575 84.9788C56.5668 87.9012 48.4743 88.7981 40.2047 87.4618C32.3519 86.1858 24.401 82.9589 17.1898 78.154C15.4114 76.9707 13.6855 75.6877 12.017 74.3181C11.0484 73.5238 11.8328 72.1088 12.8058 72.908C25.7856 83.5407 41.895 88.2649 55.7452 85.3962C62.8509 83.9241 69.2776 80.5255 74.1008 75.4876C78.7798 70.6049 81.915 63.5353 79.6109 55.4354C78.6099 51.9257 76.5859 48.3673 73.5931 45.965C70.826 43.7406 67.3915 42.465 64.316 42.6867C61.2365 42.9119 58.8718 44.7049 58.187 47.7606C57.5529 50.5944 58.2811 54.2243 60.6182 56.7972C63.0768 59.5088 66.5802 60.0876 69.4943 59.8335C73.049 59.5194 76.3223 58.2122 79.4847 56.9864C83.3188 55.4962 87.0224 53.761 90.5712 51.7931C94.0041 49.8847 97.3288 47.7729 100.179 45.0874C104.986 40.5668 108.341 34.0514 107.243 26.2337C106.331 19.7236 101.554 13.1252 95.1708 10.7931C93.7272 10.2639 92.253 10.0358 90.8466 10.1088C89.7589 10.162 89.2251 8.35294 90.3167 8.29624Z" fill="#525CCB"/>
<path d="M12.1594 71.6441C18.0916 71.3344 23.494 69.3004 27.7325 65.7374C28.5126 65.0852 29.8138 66.571 29.0337 67.2233C24.5904 70.9602 18.916 73.1312 12.6894 73.4566C11.6022 73.5182 11.0638 71.7043 12.1594 71.6441Z" fill="#525CCB"/>
<path d="M12.2826 72.3731C14.2679 79.3748 14.6614 86.4384 13.4352 92.8998C13.2291 93.9841 11.5115 93.2222 11.718 92.1464C12.888 85.9646 12.5058 79.2179 10.6052 72.5289C10.2785 71.3641 11.9515 71.2033 12.2826 72.3731Z" fill="#525CCB"/>
</svg>
